<svg width="1284" height="1043" viewBox="0 0 1284 1043" fill="none" xmlns="http://www.w3.org/2000/svg">
<path d="M730.875 651.875C730.875 831.894 619.832 945.219 443.438 945.219C267.043 945.219 156 831.894 156 651.875C156 458.696 362.057 197.905 425.253 122.471C427.502 119.791 430.292 117.639 433.433 116.164C436.574 114.689 439.99 113.925 443.447 113.925C446.905 113.925 450.321 114.689 453.462 116.164C456.603 117.639 459.393 119.791 461.642 122.471C524.818 197.905 730.875 458.696 730.875 651.875Z" stroke="#0004D5" stroke-width="32" stroke-miterlimit="10"/>
<path d="M618.719 711C618.719 749.9 603.577 787.206 576.624 814.713C549.672 842.219 513.117 857.672 475 857.672" stroke="#0004D5" stroke-width="32" stroke-linecap="round" stroke-linejoin="round"/>
<path d="M1109.22 616.375C1109.22 757.042 1022.41 845.594 884.5 845.594C746.594 845.594 659.781 757.042 659.781 616.375C659.781 465.425 820.877 261.643 870.283 202.699C872.041 200.604 874.223 198.923 876.679 197.771C879.134 196.618 881.805 196.021 884.508 196.021C887.211 196.021 889.882 196.618 892.337 197.771C894.793 198.923 896.974 200.604 898.732 202.699C948.123 261.643 1109.22 465.425 1109.22 616.375Z" stroke="#0004D5" stroke-width="32" stroke-miterlimit="10"/>
<path d="M1021.83 629.109C1021.83 659.506 1009.99 688.657 988.919 710.15C967.847 731.644 939.268 743.719 909.469 743.719" stroke="#0004D5" stroke-width="32" stroke-linecap="round" stroke-linejoin="round"/>
</svg>
